HIERARCHY
ROOT Hips
{
    OFFSET   0.000000   0.000000   0.000000
    CHANNELS 6 Xposition Yposition Zposition Zrotation Xrotation Yrotation
    JOINT Chest
    {
        OFFSET   0.000000   8.007230   0.000000
        CHANNELS 3 Zrotation Xrotation Yrotation
        JOINT Chest2
        {
            OFFSET   0.000000  22.077100   0.000000
            CHANNELS 3 Zrotation Xrotation Yrotation
            JOINT Neck
            {
                OFFSET   0.000000  23.254800  -0.000021
                CHANNELS 3 Zrotation Xrotation Yrotation
                JOINT Head
                {
                    OFFSET   0.000000  14.370000   1.956610
                    CHANNELS 3 Zrotation Xrotation Yrotation
                    End Site
                    {
                        OFFSET   0.000000  19.566000   0.000000
                    }
                }
            }
            JOINT LeftCollar
            {
                OFFSET   3.911900  19.017000  -0.467063
                CHANNELS 3 Zrotation Xrotation Yrotation
                JOINT LeftShoulder
                {
                    OFFSET  10.383700   0.000000   0.000000
                    CHANNELS 3 Zrotation Xrotation Yrotation
                    JOINT LeftElbow
                    {
                        OFFSET  26.662100   0.001529   0.000325
                        CHANNELS 3 Zrotation Xrotation Yrotation
                        JOINT LeftWrist
                        {
                            OFFSET  28.869000  -0.000011  -0.000096
                            CHANNELS 3 Zrotation Xrotation Yrotation
                            JOINT LeftFinger0
                            {
                                OFFSET   2.044650  -2.323460   3.252850
                                CHANNELS 3 Zrotation Xrotation Yrotation
                                JOINT LeftFinger01
                                {
                                    OFFSET   3.088130   0.000000   0.000000
                                    CHANNELS 3 Zrotation Xrotation Yrotation
                                    JOINT LeftFinger02
                                    {
                                        OFFSET   2.639460   0.000000   0.000000
                                        CHANNELS 3 Zrotation Xrotation Yrotation
                                        End Site
                                        {
                                            OFFSET   2.582190   0.000000   0.000000
                                        }
                                    }
                                }
                            }
                            JOINT LeftFinger1
                            {
                                OFFSET   8.364480   0.000000   3.252850
                                CHANNELS 3 Zrotation Xrotation Yrotation
                                JOINT LeftFinger11
                                {
                                    OFFSET   4.646930   0.000000   0.000000
                                    CHANNELS 3 Zrotation Xrotation Yrotation
                                    JOINT LeftFinger12
                                    {
                                        OFFSET   2.323460   0.000000   0.000000
                                        CHANNELS 3 Zrotation Xrotation Yrotation
                                        End Site
                                        {
                                            OFFSET   2.273050   0.000000   0.000000
                                        }
                                    }
                                }
                            }
                            JOINT LeftFinger2
                            {
                                OFFSET   8.364480   0.000016   1.078090
                                CHANNELS 3 Zrotation Xrotation Yrotation
                                JOINT LeftFinger21
                                {
                                    OFFSET   5.111620   0.000000   0.000000
                                    CHANNELS 3 Zrotation Xrotation Yrotation
                                    JOINT LeftFinger22
                                    {
                                        OFFSET   2.788160   0.000017   0.000000
                                        CHANNELS 3 Zrotation Xrotation Yrotation
                                        End Site
                                        {
                                            OFFSET   2.727660   0.000000   0.000000
                                        }
                                    }
                                }
                            }
                            JOINT LeftFinger3
                            {
                                OFFSET   7.899780   0.000015  -1.078090
                                CHANNELS 3 Zrotation Xrotation Yrotation
                                JOINT LeftFinger31
                                {
                                    OFFSET   4.646920   0.000000   0.000000
                                    CHANNELS 3 Zrotation Xrotation Yrotation
                                    JOINT LeftFinger32
                                    {
                                        OFFSET   2.323470   0.000000   0.000000
                                        CHANNELS 3 Zrotation Xrotation Yrotation
                                        End Site
                                        {
                                            OFFSET   2.273050   0.000000   0.000000
                                        }
                                    }
                                }
                            }
                            JOINT LeftFinger4
                            {
                                OFFSET   7.435090   0.000000  -3.252850
                                CHANNELS 3 Zrotation Xrotation Yrotation
                                JOINT LeftFinger41
                                {
                                    OFFSET   3.717550   0.000000   0.000000
                                    CHANNELS 3 Zrotation Xrotation Yrotation
                                    JOINT LeftFinger42
                                    {
                                        OFFSET   1.858760   0.000000   0.000000
                                        CHANNELS 3 Zrotation Xrotation Yrotation
                                        End Site
                                        {
                                            OFFSET   1.818440   0.000000   0.000000
                                        }
                                    }
                                }
                            }
                        }
                    }
                }
            }
            JOINT RightCollar
            {
                OFFSET  -3.911900  19.017000  -0.467062
                CHANNELS 3 Zrotation Xrotation Yrotation
                JOINT RightShoulder
                {
                    OFFSET -10.383700   0.000015   0.000000
                    CHANNELS 3 Zrotation Xrotation Yrotation
                    JOINT RightElbow
                    {
                        OFFSET -26.662100   0.001341   0.000385
                        CHANNELS 3 Zrotation Xrotation Yrotation
                        JOINT RightWrist
                        {
                            OFFSET -28.869000   0.000025  -0.000080
                            CHANNELS 3 Zrotation Xrotation Yrotation
                            JOINT RightFinger0
                            {
                                OFFSET  -2.044650  -2.323490   3.252850
                                CHANNELS 3 Zrotation Xrotation Yrotation
                                JOINT RightFinger01
                                {
                                    OFFSET  -3.088130   0.000000   0.000000
                                    CHANNELS 3 Zrotation Xrotation Yrotation
                                    JOINT RightFinger02
                                    {
                                        OFFSET  -2.639460   0.000000   0.000000
                                        CHANNELS 3 Zrotation Xrotation Yrotation
                                        End Site
                                        {
                                            OFFSET  -2.582190   0.000000   0.000000
                                        }
                                    }
                                }
                            }
                            JOINT RightFinger1
                            {
                                OFFSET  -8.364480   0.000000   3.252850
                                CHANNELS 3 Zrotation Xrotation Yrotation
                                JOINT RightFinger11
                                {
                                    OFFSET  -4.646930   0.000000   0.000000
                                    CHANNELS 3 Zrotation Xrotation Yrotation
                                    JOINT RightFinger12
                                    {
                                        OFFSET  -2.323470   0.000000   0.000000
                                        CHANNELS 3 Zrotation Xrotation Yrotation
                                        End Site
                                        {
                                            OFFSET  -2.273050   0.000000   0.000000
                                        }
                                    }
                                }
                            }
                            JOINT RightFinger2
                            {
                                OFFSET  -8.364480   0.000000   1.078090
                                CHANNELS 3 Zrotation Xrotation Yrotation
                                JOINT RightFinger21
                                {
                                    OFFSET  -5.111610   0.000000   0.000000
                                    CHANNELS 3 Zrotation Xrotation Yrotation
                                    JOINT RightFinger22
                                    {
                                        OFFSET  -2.788160   0.000000   0.000000
                                        CHANNELS 3 Zrotation Xrotation Yrotation
                                        End Site
                                        {
                                            OFFSET  -2.727660   0.000000   0.000000
                                        }
                                    }
                                }
                            }
                            JOINT RightFinger3
                            {
                                OFFSET  -7.899780   0.000000  -1.078090
                                CHANNELS 3 Zrotation Xrotation Yrotation
                                JOINT RightFinger31
                                {
                                    OFFSET  -4.646920   0.000000   0.000000
                                    CHANNELS 3 Zrotation Xrotation Yrotation
                                    JOINT RightFinger32
                                    {
                                        OFFSET  -2.323470   0.000000   0.000000
                                        CHANNELS 3 Zrotation Xrotation Yrotation
                                        End Site
                                        {
                                            OFFSET  -2.273050   0.000000   0.000000
                                        }
                                    }
                                }
                            }
                            JOINT RightFinger4
                            {
                                OFFSET  -7.435090   0.000000  -3.252850
                                CHANNELS 3 Zrotation Xrotation Yrotation
                                JOINT RightFinger41
                                {
                                    OFFSET  -3.717550   0.000000   0.000000
                                    CHANNELS 3 Zrotation Xrotation Yrotation
                                    JOINT RightFinger42
                                    {
                                        OFFSET  -1.858770   0.000000   0.000000
                                        CHANNELS 3 Zrotation Xrotation Yrotation
                                        End Site
                                        {
                                            OFFSET  -1.818440   0.000000   0.000000
                                        }
                                    }
                                }
                            }
                        }
                    }
                }
            }
        }
    }
    JOINT LeftHip
    {
        OFFSET   9.783010   0.000000   0.000000
        CHANNELS 3 Zrotation Xrotation Yrotation
        JOINT LeftKnee
        {
            OFFSET   0.000070 -41.789100   0.000028
            CHANNELS 3 Zrotation Xrotation Yrotation
            JOINT LeftAnkle
            {
                OFFSET   0.000087 -41.133200  -0.000100
                CHANNELS 3 Zrotation Xrotation Yrotation
                JOINT LeftToe
                {
                    OFFSET   0.000000  -6.358960  14.674500
                    CHANNELS 3 Zrotation Xrotation Yrotation
                    End Site
                    {
                        OFFSET   0.000000   0.000000   3.913200
                    }
                }
            }
        }
    }
    JOINT RightHip
    {
        OFFSET  -9.783020   0.000000   0.000000
        CHANNELS 3 Zrotation Xrotation Yrotation
        JOINT RightKnee
        {
            OFFSET   0.000044 -41.789100  -0.000870
            CHANNELS 3 Zrotation Xrotation Yrotation
            JOINT RightAnkle
            {
                OFFSET  -0.000090 -41.133200  -0.000245
                CHANNELS 3 Zrotation Xrotation Yrotation
                JOINT RightToe
                {
                    OFFSET   0.000000  -6.358960  14.674500
                    CHANNELS 3 Zrotation Xrotation Yrotation
                    End Site
                    {
                        OFFSET   0.000000   0.000000   3.913200
                    }
                }
            }
        }
    }
}
MOTION
Frames: 5
Frame Time:   0.016667
  0.160601  89.595400  -0.275581  -1.326230  -1.531290  -0.052868   0.524910   3.389270   0.454918   1.025490   6.782450   0.880964  -1.581250   0.315069   0.009844  -2.595640   0.637363   3.870220  -4.367780   1.793630   5.813560 -78.364300   7.431860  -2.215580  -0.396753   4.602580 -16.048100   8.986090  -4.129840  -3.678450  38.822900  31.298300 -50.557400 -32.619100  -0.002288   0.006275 -11.309600   0.013964   0.002841 -31.037000  -1.128700   1.870650 -25.408800  -0.007882   0.000643 -17.786100  -0.005630   0.001575 -26.741400  -4.327120   8.536480 -27.268900   0.001890   0.005419 -18.168600  -0.001381  -0.010784 -28.268300  -4.563070   8.418240 -37.421700   0.002813   0.001716 -24.911100   0.002003   0.000156 -34.102200  -5.398830   7.910920 -51.708300   0.002691  -0.002354 -34.439200   0.001525   0.000948   9.318290   3.828490   5.360110  69.797400  -4.425990  -1.466030   3.440630  -5.381420  20.146300 -22.772400  -6.626540   7.016580 -38.529400  38.247800  75.354700  33.555500   0.006493  -0.004238  11.777800   0.002466   0.004240  35.046600   1.358700   1.935650  28.692900   0.003089   0.003806  20.085000   0.003889  -0.003191  36.851900  -3.539480  -4.709970  54.107900  -0.000480   0.001891  36.313500   0.013886   0.002299  39.001400  -5.535670  -6.796470  54.291100  -0.005216   0.002009  37.075200   0.000835  -0.001810  50.800300  -6.807710  -5.523000  76.693500  -0.000935   0.000207  51.077900  -0.000123   0.000381   2.971950   1.161680  -2.055380   0.019414   1.456520  10.173100  -2.246880  -1.872060   0.294517  -0.000000   0.000000   0.000000   1.013590   0.590010  -4.060770  -0.642069   3.780540 -13.353800   1.053100  -3.101260  -1.630390  -0.000000   0.000000   0.000000
  0.163936  89.595400  -0.284358  -1.324750  -1.579020   0.002259   0.527959   3.396560   0.454178   1.031690   6.797080   0.879341  -1.583300   0.351377   0.010282  -2.601720   0.711049   3.865830  -4.384000   1.856090   5.837660 -78.377300   7.460860  -2.264460  -0.392929   4.583950 -16.026200   8.990160  -4.124720  -3.689290  38.821300  31.275400 -50.526500 -32.602500  -0.002308   0.006283 -11.301200   0.014105   0.002848 -31.036400  -1.129990   1.874600 -25.408400  -0.007888   0.000691 -17.785800  -0.005686   0.001575 -26.741400  -4.327150   8.536480 -27.263100   0.002029   0.005468 -18.161000  -0.001254  -0.010881 -28.268300  -4.563520   8.418250 -37.416200   0.003008   0.001604 -24.910800   0.002147   0.000194 -34.102200  -5.398830   7.910920 -51.708200   0.002903  -0.002355 -34.438900   0.001640   0.001030   9.348700   3.841350   5.457050  69.785200  -4.524350  -1.572050   3.488250  -5.451230  20.311500 -22.793300  -6.580930   7.070600 -38.713000  38.436000  75.508900  33.468200   0.006499  -0.004211  11.734100   0.002464   0.004253  35.030400   1.410840   2.011740  28.680500   0.003109   0.003761  20.076300   0.003878  -0.003213  36.607800  -3.539660  -4.745720  54.093300  -0.000491   0.001903  36.234100   0.013936   0.002178  38.802400  -5.518680  -6.826800  54.279300  -0.005196   0.002174  37.013800   0.000722  -0.001947  50.715500  -6.809880  -5.542030  76.568300  -0.001068  -0.000122  50.994600  -0.000298   0.000250   2.963370   1.189650  -2.067500   0.025663   1.463570  10.166100  -2.248090  -1.859080   0.258193  -0.000000   0.000000   0.000000   1.012220   0.620699  -4.084320  -0.647196   3.812640 -13.376200   1.067650  -3.128140  -1.631760   0.000000   0.000000   0.000000
  0.172395  89.595400  -0.300162  -1.322020  -1.664920   0.096152   0.542539   3.410280   0.448984   1.061070   6.824570   0.867845  -1.593330   0.412273   0.011401  -2.618060   0.834507   3.861490  -4.407580   1.976420   5.901450 -78.438200   7.511440  -2.354950  -0.387525   4.550450 -15.993900   9.001510  -4.117490  -3.700120  38.819700  31.252500 -50.495600 -32.585900  -0.002328   0.006297 -11.292900   0.014401   0.002855 -31.035700  -1.132590   1.881200 -25.407900  -0.007900   0.000791 -17.785500  -0.005797   0.001575 -26.741400  -4.327200   8.536480 -27.257400   0.002223   0.005572 -18.153400  -0.001042  -0.011084 -28.268400  -4.563970   8.418250 -37.410600   0.003282   0.001419 -24.910400   0.002348   0.000256 -34.102200  -5.398830   7.910920 -51.708100   0.003200  -0.002358 -34.438500   0.001801   0.001145   9.392160   3.865750   5.554070  69.752500  -4.856690  -1.741970   3.589970  -5.510520  20.763300 -22.873300  -6.500130   7.274750 -38.972600  38.659000  75.776400  33.319300   0.006508  -0.004174  11.659600   0.002461   0.004275  34.993600   1.527750   2.182140  28.653000   0.003158   0.003671  20.057100   0.003854  -0.003267  36.214500  -3.539840  -4.806200  54.034000  -0.000519   0.001932  36.089400   0.014042   0.001977  38.368800  -5.482820  -6.892670  54.249300  -0.005150   0.002482  36.876200   0.000514  -0.002137  50.547600  -6.817160  -5.581600  76.320700  -0.001288  -0.000451  50.829700  -0.000472   0.000119   2.951320   1.241240  -2.090670   0.034968   1.476440  10.151300  -2.249930  -1.838660   0.201659   0.000000   0.000000  -0.000000   1.009710   0.674429  -4.119400  -0.656105   3.872000 -13.411800   1.098190  -3.181590  -1.639370   0.000000   0.000000   0.000000
  0.184813  89.594500  -0.314274  -1.319550  -1.747470   0.175787   0.574589   3.422770   0.430714   1.126290   6.849610   0.829081  -1.614850   0.461374   0.013186  -2.652130   0.933721   3.884340  -4.409910   2.117270   6.013440 -78.572400   7.568850  -2.459080  -0.385028   4.509560 -15.975500   9.025990  -4.115860  -3.695690  38.845900  31.333800 -50.606000 -32.608100  -0.002328   0.006318 -11.304000   0.014799   0.002851 -31.036800  -1.135400   1.886190 -25.409000  -0.007919   0.000926 -17.786300  -0.005942   0.001579 -26.753800  -4.327340   8.529950 -27.308100   0.002306   0.005713 -18.187200  -0.000830  -0.011363 -28.269600  -4.560850   8.412710 -37.410900   0.003400   0.001233 -24.911300   0.002435   0.000319 -34.101400  -5.394910   7.905950 -51.708400   0.003327  -0.002363 -34.438600   0.001870   0.001194   9.407760   3.898500   5.553390  69.658500  -5.507190  -1.853010   3.706650  -5.262360  21.438100 -23.038000  -6.406790   7.682450 -39.048900  38.724100  76.004900  33.198800   0.006513  -0.004161  11.599400   0.002460   0.004289  34.943500   1.695460   2.425610  28.617400   0.003230   0.003550  20.032200   0.003822  -0.003344  35.922900  -3.539770  -4.859090  53.873000  -0.000564   0.001975  35.934200   0.014192   0.001774  37.798400  -5.436720  -6.978760  54.202000  -0.005084   0.002888  36.688500   0.000246  -0.002217  50.339100  -6.829950  -5.633380  76.013800  -0.001508  -0.000369  50.625200  -0.000429   0.000152   2.946750   1.292960  -2.118450   0.039795   1.489830  10.134100  -2.250980  -1.825340   0.166518  -0.000000   0.000000   0.000000   1.006600   0.722623  -4.141930  -0.664088   3.932210 -13.436700   1.137580  -3.242230  -1.652220   0.000000   0.000000   0.000000
  0.201600  89.593100  -0.331790  -1.317320  -1.836640   0.257252   0.618699   3.440690   0.393932   1.216950   6.885400   0.752586  -1.645020   0.511776   0.015288  -2.703230   1.035430   3.949550  -4.398680   2.256430   6.131070 -78.748200   7.604510  -2.548390  -0.384216   4.483590 -15.965800   9.043640  -4.112820  -3.688150  38.881300  31.450500 -50.771200 -32.645500  -0.002328   0.006331 -11.322700   0.015198   0.002843 -31.045800  -1.139250   1.891810 -25.416500  -0.007931   0.001061 -17.791500  -0.006073   0.001585 -26.777500  -4.327530   8.517430 -27.405100   0.002334   0.005854 -18.251800  -0.000703  -0.011641 -28.271500  -4.555090   8.402020 -37.413300   0.003439   0.001121 -24.917200   0.002464   0.000357 -34.101500  -5.388240   7.895870 -51.710500   0.003370  -0.002368 -34.439200   0.001893   0.001210   9.410630   3.919740   5.547270  69.494900  -6.297790  -1.978050   3.806540  -4.832540  22.420800 -23.246600  -6.344290   8.217310 -39.061400  38.720000  76.139400  33.061600   0.006515  -0.004153  11.530800   0.002459   0.004303  34.879100   1.876750   2.690280  28.571800   0.003319   0.003440  20.000300   0.003782  -0.003439  35.657700  -3.539580  -4.907780  53.751000  -0.000613   0.002015  35.790800   0.014342   0.001652  37.123900  -5.384650  -7.080790  54.145000  -0.005013   0.003151  36.465500   0.000074  -0.002243  50.135100  -6.848630  -5.687220  75.714200  -0.001641   0.000204  50.425600  -0.000125   0.000385   2.944210   1.350610  -2.143740   0.043870   1.503080  10.110900  -2.252010  -1.812510   0.132835   0.000000   0.000000   0.000000   1.004210   0.774356  -4.152960  -0.672473   3.998630 -13.459000   1.180940  -3.313810  -1.680380   0.000000   0.000000  -0.000000
